<svg width="762" height="94" viewBox="0 0 762 94" fill="none" xmlns="http://www.w3.org/2000/svg">
<rect x="0.5" y="0.5" width="761" height="93" rx="46.5" fill="#262626" stroke="#464040"/>
<path d="M720.502 48.9375H703V46.0625H720.502L712.452 38.0125L714.5 36L726 47.5L714.5 59L712.452 56.9875L720.502 48.9375Z" fill="#ADADAD"/>
<path d="M50.8182 59V35.7273H58.6818C60.5076 35.7273 62 36.0568 63.1591 36.7159C64.3258 37.3674 65.1894 38.25 65.75 39.3636C66.3106 40.4773 66.5909 41.7197 66.5909 43.0909C66.5909 44.4621 66.3106 45.7083 65.75 46.8295C65.197 47.9508 64.3409 48.8447 63.1818 49.5114C62.0227 50.1705 60.5379 50.5 58.7273 50.5H53.0909V48H58.6364C59.8864 48 60.8902 47.7841 61.6477 47.3523C62.4053 46.9205 62.9545 46.3371 63.2955 45.6023C63.6439 44.8598 63.8182 44.0227 63.8182 43.0909C63.8182 42.1591 63.6439 41.3258 63.2955 40.5909C62.9545 39.8561 62.4015 39.2803 61.6364 38.8636C60.8712 38.4394 59.8561 38.2273 58.5909 38.2273H53.6364V59H50.8182ZM70.767 59V41.5455H73.358V44.1818H73.5398C73.858 43.3182 74.4337 42.6174 75.267 42.0795C76.1004 41.5417 77.0398 41.2727 78.0852 41.2727C78.2822 41.2727 78.5284 41.2765 78.8239 41.2841C79.1193 41.2917 79.3428 41.303 79.4943 41.3182V44.0455C79.4034 44.0227 79.1951 43.9886 78.8693 43.9432C78.5511 43.8902 78.214 43.8636 77.858 43.8636C77.0095 43.8636 76.2519 44.0417 75.5852 44.3977C74.9261 44.7462 74.4034 45.2311 74.017 45.8523C73.6383 46.4659 73.4489 47.1667 73.4489 47.9545V59H70.767ZM89.4602 59.3636C87.7784 59.3636 86.3277 58.9924 85.108 58.25C83.8958 57.5 82.9602 56.4545 82.3011 55.1136C81.6496 53.7652 81.3239 52.197 81.3239 50.4091C81.3239 48.6212 81.6496 47.0455 82.3011 45.6818C82.9602 44.3106 83.8769 43.2424 85.0511 42.4773C86.233 41.7045 87.6117 41.3182 89.1875 41.3182C90.0966 41.3182 90.9943 41.4697 91.8807 41.7727C92.767 42.0758 93.5739 42.5682 94.3011 43.25C95.0284 43.9242 95.608 44.8182 96.0398 45.9318C96.4716 47.0455 96.6875 48.4167 96.6875 50.0455V51.1818H83.233V48.8636H93.9602C93.9602 47.8788 93.7633 47 93.3693 46.2273C92.983 45.4545 92.4299 44.8447 91.7102 44.3977C90.9981 43.9508 90.1572 43.7273 89.1875 43.7273C88.1193 43.7273 87.1951 43.9924 86.4148 44.5227C85.642 45.0455 85.0473 45.7273 84.6307 46.5682C84.214 47.4091 84.0057 48.3106 84.0057 49.2727V50.8182C84.0057 52.1364 84.233 53.2538 84.6875 54.1705C85.1496 55.0795 85.7898 55.7727 86.608 56.25C87.4261 56.7197 88.3769 56.9545 89.4602 56.9545C90.1648 56.9545 90.8011 56.8561 91.3693 56.6591C91.9451 56.4545 92.4413 56.1515 92.858 55.75C93.2746 55.3409 93.5966 54.8333 93.8239 54.2273L96.4148 54.9545C96.142 55.8333 95.6837 56.6061 95.0398 57.2727C94.3958 57.9318 93.6004 58.447 92.6534 58.8182C91.7064 59.1818 90.642 59.3636 89.4602 59.3636ZM107.812 65.9091C106.517 65.9091 105.403 65.7424 104.472 65.4091C103.54 65.0833 102.763 64.6515 102.142 64.1136C101.528 63.5833 101.04 63.0152 100.676 62.4091L102.812 60.9091C103.055 61.2273 103.362 61.5909 103.733 62C104.104 62.4167 104.612 62.7765 105.256 63.0795C105.907 63.3902 106.759 63.5455 107.812 63.5455C109.222 63.5455 110.384 63.2045 111.301 62.5227C112.218 61.8409 112.676 60.7727 112.676 59.3182V55.7727H112.449C112.252 56.0909 111.972 56.4848 111.608 56.9545C111.252 57.4167 110.737 57.8295 110.062 58.1932C109.396 58.5492 108.494 58.7273 107.358 58.7273C105.949 58.7273 104.684 58.3939 103.562 57.7273C102.449 57.0606 101.566 56.0909 100.915 54.8182C100.271 53.5455 99.9489 52 99.9489 50.1818C99.9489 48.3939 100.263 46.8371 100.892 45.5114C101.521 44.178 102.396 43.1477 103.517 42.4205C104.638 41.6856 105.934 41.3182 107.403 41.3182C108.54 41.3182 109.441 41.5076 110.108 41.8864C110.782 42.2576 111.297 42.6818 111.653 43.1591C112.017 43.6288 112.297 44.0152 112.494 44.3182H112.767V41.5455H115.358V59.5C115.358 61 115.017 62.2197 114.335 63.1591C113.661 64.1061 112.752 64.7992 111.608 65.2386C110.472 65.6856 109.206 65.9091 107.812 65.9091ZM107.722 56.3182C108.797 56.3182 109.706 56.072 110.449 55.5795C111.191 55.0871 111.756 54.3788 112.142 53.4545C112.528 52.5303 112.722 51.4242 112.722 50.1364C112.722 48.8788 112.532 47.7689 112.153 46.8068C111.775 45.8447 111.214 45.0909 110.472 44.5455C109.729 44 108.813 43.7273 107.722 43.7273C106.585 43.7273 105.638 44.0152 104.881 44.5909C104.131 45.1667 103.566 45.9394 103.188 46.9091C102.816 47.8788 102.631 48.9545 102.631 50.1364C102.631 51.3485 102.82 52.4205 103.199 53.3523C103.585 54.2765 104.153 55.0038 104.903 55.5341C105.661 56.0568 106.6 56.3182 107.722 56.3182ZM131.267 51.8636V41.5455H133.949V59H131.267V56.0455H131.085C130.676 56.9318 130.04 57.6856 129.176 58.3068C128.313 58.9205 127.222 59.2273 125.903 59.2273C124.812 59.2273 123.843 58.9886 122.994 58.5114C122.146 58.0265 121.479 57.2992 120.994 56.3295C120.509 55.3523 120.267 54.1212 120.267 52.6364V41.5455H122.949V52.4545C122.949 53.7273 123.305 54.7424 124.017 55.5C124.737 56.2576 125.653 56.6364 126.767 56.6364C127.434 56.6364 128.112 56.4659 128.801 56.125C129.498 55.7841 130.081 55.2614 130.551 54.5568C131.028 53.8523 131.267 52.9545 131.267 51.8636ZM141.543 48.5V59H138.861V41.5455H141.452V44.2727H141.679C142.088 43.3864 142.709 42.6742 143.543 42.1364C144.376 41.5909 145.452 41.3182 146.77 41.3182C147.952 41.3182 148.986 41.5606 149.872 42.0455C150.759 42.5227 151.448 43.25 151.94 44.2273C152.433 45.197 152.679 46.4242 152.679 47.9091V59H149.997V48.0909C149.997 46.7197 149.641 45.6515 148.929 44.8864C148.217 44.1136 147.24 43.7273 145.997 43.7273C145.141 43.7273 144.376 43.9129 143.702 44.2841C143.035 44.6553 142.509 45.197 142.122 45.9091C141.736 46.6212 141.543 47.4848 141.543 48.5ZM165.17 41.5455V43.8182H156.125V41.5455H165.17ZM158.761 37.3636H161.443V54C161.443 54.7576 161.553 55.3258 161.773 55.7045C162 56.0758 162.288 56.3258 162.636 56.4545C162.992 56.5758 163.367 56.6364 163.761 56.6364C164.057 56.6364 164.299 56.6212 164.489 56.5909C164.678 56.553 164.83 56.5227 164.943 56.5L165.489 58.9091C165.307 58.9773 165.053 59.0455 164.727 59.1136C164.402 59.1894 163.989 59.2273 163.489 59.2273C162.731 59.2273 161.989 59.0644 161.261 58.7386C160.542 58.4129 159.943 57.9167 159.466 57.25C158.996 56.5833 158.761 55.7424 158.761 54.7273V37.3636ZM174.341 59.4091C173.235 59.4091 172.231 59.2008 171.33 58.7841C170.428 58.3598 169.712 57.75 169.182 56.9545C168.652 56.1515 168.386 55.1818 168.386 54.0455C168.386 53.0455 168.583 52.2348 168.977 51.6136C169.371 50.9848 169.898 50.4924 170.557 50.1364C171.216 49.7803 171.943 49.5152 172.739 49.3409C173.542 49.1591 174.348 49.0152 175.159 48.9091C176.22 48.7727 177.08 48.6705 177.739 48.6023C178.405 48.5265 178.89 48.4015 179.193 48.2273C179.504 48.053 179.659 47.75 179.659 47.3182V47.2273C179.659 46.1061 179.352 45.2348 178.739 44.6136C178.133 43.9924 177.212 43.6818 175.977 43.6818C174.697 43.6818 173.693 43.9621 172.966 44.5227C172.239 45.0833 171.727 45.6818 171.432 46.3182L168.886 45.4091C169.341 44.3485 169.947 43.5227 170.705 42.9318C171.47 42.3333 172.303 41.9167 173.205 41.6818C174.114 41.4394 175.008 41.3182 175.886 41.3182C176.447 41.3182 177.091 41.3864 177.818 41.5227C178.553 41.6515 179.261 41.9205 179.943 42.3295C180.633 42.7386 181.205 43.3561 181.659 44.1818C182.114 45.0076 182.341 46.1136 182.341 47.5V59H179.659V56.6364H179.523C179.341 57.0152 179.038 57.4205 178.614 57.8523C178.189 58.2841 177.625 58.6515 176.92 58.9545C176.216 59.2576 175.356 59.4091 174.341 59.4091ZM174.75 57C175.811 57 176.705 56.7917 177.432 56.375C178.167 55.9583 178.72 55.4205 179.091 54.7614C179.47 54.1023 179.659 53.4091 179.659 52.6818V50.2273C179.545 50.3636 179.295 50.4886 178.909 50.6023C178.53 50.7083 178.091 50.803 177.591 50.8864C177.098 50.9621 176.617 51.0303 176.148 51.0909C175.686 51.1439 175.311 51.1894 175.023 51.2273C174.326 51.3182 173.674 51.4659 173.068 51.6705C172.47 51.8674 171.985 52.1667 171.614 52.5682C171.25 52.9621 171.068 53.5 171.068 54.1818C171.068 55.1136 171.413 55.8182 172.102 56.2955C172.799 56.7652 173.682 57 174.75 57ZM187.236 59V41.5455H189.827V44.2727H190.054C190.418 43.3409 191.005 42.6174 191.815 42.1023C192.626 41.5795 193.599 41.3182 194.736 41.3182C195.887 41.3182 196.846 41.5795 197.611 42.1023C198.384 42.6174 198.986 43.3409 199.418 44.2727H199.599C200.046 43.3712 200.717 42.6553 201.611 42.125C202.505 41.5871 203.577 41.3182 204.827 41.3182C206.387 41.3182 207.664 41.8068 208.656 42.7841C209.649 43.7538 210.145 45.2652 210.145 47.3182V59H207.463V47.3182C207.463 46.0303 207.111 45.1098 206.406 44.5568C205.702 44.0038 204.872 43.7273 203.918 43.7273C202.69 43.7273 201.74 44.0985 201.065 44.8409C200.391 45.5758 200.054 46.5076 200.054 47.6364V59H197.327V47.0455C197.327 46.053 197.005 45.2538 196.361 44.6477C195.717 44.0341 194.887 43.7273 193.872 43.7273C193.175 43.7273 192.524 43.9129 191.918 44.2841C191.319 44.6553 190.834 45.1705 190.463 45.8295C190.099 46.4811 189.918 47.2348 189.918 48.0909V59H187.236ZM222.366 59.3636C220.685 59.3636 219.234 58.9924 218.014 58.25C216.802 57.5 215.866 56.4545 215.207 55.1136C214.556 53.7652 214.23 52.197 214.23 50.4091C214.23 48.6212 214.556 47.0455 215.207 45.6818C215.866 44.3106 216.783 43.2424 217.957 42.4773C219.139 41.7045 220.518 41.3182 222.094 41.3182C223.003 41.3182 223.901 41.4697 224.787 41.7727C225.673 42.0758 226.48 42.5682 227.207 43.25C227.935 43.9242 228.514 44.8182 228.946 45.9318C229.378 47.0455 229.594 48.4167 229.594 50.0455V51.1818H216.139V48.8636H226.866C226.866 47.8788 226.67 47 226.276 46.2273C225.889 45.4545 225.336 44.8447 224.616 44.3977C223.904 43.9508 223.063 43.7273 222.094 43.7273C221.026 43.7273 220.101 43.9924 219.321 44.5227C218.548 45.0455 217.954 45.7273 217.537 46.5682C217.12 47.4091 216.912 48.3106 216.912 49.2727V50.8182C216.912 52.1364 217.139 53.2538 217.594 54.1705C218.056 55.0795 218.696 55.7727 219.514 56.25C220.332 56.7197 221.283 56.9545 222.366 56.9545C223.071 56.9545 223.707 56.8561 224.276 56.6591C224.851 56.4545 225.348 56.1515 225.764 55.75C226.181 55.3409 226.503 54.8333 226.73 54.2273L229.321 54.9545C229.048 55.8333 228.59 56.6061 227.946 57.2727C227.302 57.9318 226.507 58.447 225.56 58.8182C224.613 59.1818 223.548 59.3636 222.366 59.3636ZM255.037 45.4545L252.628 46.1364C252.476 45.7348 252.253 45.3447 251.957 44.9659C251.67 44.5795 251.276 44.2614 250.776 44.0114C250.276 43.7614 249.635 43.6364 248.855 43.6364C247.787 43.6364 246.897 43.8826 246.185 44.375C245.48 44.8598 245.128 45.4773 245.128 46.2273C245.128 46.8939 245.37 47.4205 245.855 47.8068C246.34 48.1932 247.098 48.5152 248.128 48.7727L250.719 49.4091C252.279 49.7879 253.442 50.3674 254.207 51.1477C254.973 51.9205 255.355 52.9167 255.355 54.1364C255.355 55.1364 255.067 56.0303 254.491 56.8182C253.923 57.6061 253.128 58.2273 252.105 58.6818C251.082 59.1364 249.893 59.3636 248.537 59.3636C246.757 59.3636 245.283 58.9773 244.116 58.2045C242.95 57.4318 242.211 56.303 241.901 54.8182L244.446 54.1818C244.688 55.1212 245.147 55.8258 245.821 56.2955C246.503 56.7652 247.393 57 248.491 57C249.741 57 250.734 56.7348 251.469 56.2045C252.211 55.6667 252.582 55.0227 252.582 54.2727C252.582 53.6667 252.37 53.1591 251.946 52.75C251.522 52.3333 250.87 52.0227 249.991 51.8182L247.082 51.1364C245.484 50.7576 244.31 50.1705 243.56 49.375C242.817 48.572 242.446 47.5682 242.446 46.3636C242.446 45.3788 242.723 44.5076 243.276 43.75C243.836 42.9924 244.598 42.3977 245.56 41.9659C246.529 41.5341 247.628 41.3182 248.855 41.3182C250.582 41.3182 251.938 41.697 252.923 42.4545C253.916 43.2121 254.62 44.2121 255.037 45.4545ZM266.483 59.3636C264.907 59.3636 263.525 58.9886 262.335 58.2386C261.153 57.4886 260.229 56.4394 259.562 55.0909C258.903 53.7424 258.574 52.1667 258.574 50.3636C258.574 48.5455 258.903 46.9583 259.562 45.6023C260.229 44.2462 261.153 43.1932 262.335 42.4432C263.525 41.6932 264.907 41.3182 266.483 41.3182C268.059 41.3182 269.438 41.6932 270.619 42.4432C271.809 43.1932 272.733 44.2462 273.392 45.6023C274.059 46.9583 274.392 48.5455 274.392 50.3636C274.392 52.1667 274.059 53.7424 273.392 55.0909C272.733 56.4394 271.809 57.4886 270.619 58.2386C269.438 58.9886 268.059 59.3636 266.483 59.3636ZM266.483 56.9545C267.68 56.9545 268.665 56.6477 269.438 56.0341C270.21 55.4205 270.782 54.6136 271.153 53.6136C271.525 52.6136 271.71 51.5303 271.71 50.3636C271.71 49.197 271.525 48.1098 271.153 47.1023C270.782 46.0947 270.21 45.2803 269.438 44.6591C268.665 44.0379 267.68 43.7273 266.483 43.7273C265.286 43.7273 264.301 44.0379 263.528 44.6591C262.756 45.2803 262.184 46.0947 261.812 47.1023C261.441 48.1098 261.256 49.197 261.256 50.3636C261.256 51.5303 261.441 52.6136 261.812 53.6136C262.184 54.6136 262.756 55.4205 263.528 56.0341C264.301 56.6477 265.286 56.9545 266.483 56.9545ZM278.849 59V35.7273H281.531V44.3182H281.759C281.955 44.0152 282.228 43.6288 282.577 43.1591C282.933 42.6818 283.44 42.2576 284.099 41.8864C284.766 41.5076 285.668 41.3182 286.804 41.3182C288.274 41.3182 289.569 41.6856 290.69 42.4205C291.812 43.1553 292.687 44.197 293.315 45.5455C293.944 46.8939 294.259 48.4848 294.259 50.3182C294.259 52.1667 293.944 53.7689 293.315 55.125C292.687 56.4735 291.815 57.5189 290.702 58.2614C289.588 58.9962 288.304 59.3636 286.849 59.3636C285.728 59.3636 284.83 59.178 284.156 58.8068C283.482 58.428 282.963 58 282.599 57.5227C282.236 57.0379 281.955 56.6364 281.759 56.3182H281.44V59H278.849ZM281.486 50.2727C281.486 51.5909 281.679 52.7538 282.065 53.7614C282.452 54.7614 283.016 55.5455 283.759 56.1136C284.501 56.6742 285.41 56.9545 286.486 56.9545C287.607 56.9545 288.543 56.6591 289.293 56.0682C290.05 55.4697 290.618 54.6667 290.997 53.6591C291.384 52.6439 291.577 51.5152 291.577 50.2727C291.577 49.0455 291.387 47.9394 291.009 46.9545C290.637 45.9621 290.073 45.178 289.315 44.6023C288.565 44.0189 287.622 43.7273 286.486 43.7273C285.395 43.7273 284.478 44.0038 283.736 44.5568C282.993 45.1023 282.433 45.8674 282.054 46.8523C281.675 47.8295 281.486 48.9697 281.486 50.2727ZM298.361 59V41.5455H300.952V44.1818H301.134C301.452 43.3182 302.027 42.6174 302.861 42.0795C303.694 41.5417 304.634 41.2727 305.679 41.2727C305.876 41.2727 306.122 41.2765 306.418 41.2841C306.713 41.2917 306.937 41.303 307.088 41.3182V44.0455C306.997 44.0227 306.789 43.9886 306.463 43.9432C306.145 43.8902 305.808 43.8636 305.452 43.8636C304.603 43.8636 303.846 44.0417 303.179 44.3977C302.52 44.7462 301.997 45.2311 301.611 45.8523C301.232 46.4659 301.043 47.1667 301.043 47.9545V59H298.361ZM317.054 59.3636C315.372 59.3636 313.921 58.9924 312.702 58.25C311.49 57.5 310.554 56.4545 309.895 55.1136C309.243 53.7652 308.918 52.197 308.918 50.4091C308.918 48.6212 309.243 47.0455 309.895 45.6818C310.554 44.3106 311.471 43.2424 312.645 42.4773C313.827 41.7045 315.205 41.3182 316.781 41.3182C317.69 41.3182 318.588 41.4697 319.474 41.7727C320.361 42.0758 321.168 42.5682 321.895 43.25C322.622 43.9242 323.202 44.8182 323.634 45.9318C324.065 47.0455 324.281 48.4167 324.281 50.0455V51.1818H310.827V48.8636H321.554C321.554 47.8788 321.357 47 320.963 46.2273C320.577 45.4545 320.024 44.8447 319.304 44.3977C318.592 43.9508 317.751 43.7273 316.781 43.7273C315.713 43.7273 314.789 43.9924 314.009 44.5227C313.236 45.0455 312.641 45.7273 312.224 46.5682C311.808 47.4091 311.599 48.3106 311.599 49.2727V50.8182C311.599 52.1364 311.827 53.2538 312.281 54.1705C312.743 55.0795 313.384 55.7727 314.202 56.25C315.02 56.7197 315.971 56.9545 317.054 56.9545C317.759 56.9545 318.395 56.8561 318.963 56.6591C319.539 56.4545 320.035 56.1515 320.452 55.75C320.868 55.3409 321.19 54.8333 321.418 54.2273L324.009 54.9545C323.736 55.8333 323.277 56.6061 322.634 57.2727C321.99 57.9318 321.194 58.447 320.247 58.8182C319.3 59.1818 318.236 59.3636 317.054 59.3636ZM337.361 59V41.5455H339.952V44.2727H340.179C340.543 43.3409 341.13 42.6174 341.94 42.1023C342.751 41.5795 343.724 41.3182 344.861 41.3182C346.012 41.3182 346.971 41.5795 347.736 42.1023C348.509 42.6174 349.111 43.3409 349.543 44.2727H349.724C350.171 43.3712 350.842 42.6553 351.736 42.125C352.63 41.5871 353.702 41.3182 354.952 41.3182C356.512 41.3182 357.789 41.8068 358.781 42.7841C359.774 43.7538 360.27 45.2652 360.27 47.3182V59H357.588V47.3182C357.588 46.0303 357.236 45.1098 356.531 44.5568C355.827 44.0038 354.997 43.7273 354.043 43.7273C352.815 43.7273 351.865 44.0985 351.19 44.8409C350.516 45.5758 350.179 46.5076 350.179 47.6364V59H347.452V47.0455C347.452 46.053 347.13 45.2538 346.486 44.6477C345.842 44.0341 345.012 43.7273 343.997 43.7273C343.3 43.7273 342.649 43.9129 342.043 44.2841C341.444 44.6553 340.959 45.1705 340.588 45.8295C340.224 46.4811 340.043 47.2348 340.043 48.0909V59H337.361ZM370.31 59.4091C369.204 59.4091 368.2 59.2008 367.298 58.7841C366.397 58.3598 365.681 57.75 365.151 56.9545C364.62 56.1515 364.355 55.1818 364.355 54.0455C364.355 53.0455 364.552 52.2348 364.946 51.6136C365.34 50.9848 365.866 50.4924 366.526 50.1364C367.185 49.7803 367.912 49.5152 368.707 49.3409C369.51 49.1591 370.317 49.0152 371.128 48.9091C372.188 48.7727 373.048 48.6705 373.707 48.6023C374.374 48.5265 374.859 48.4015 375.162 48.2273C375.473 48.053 375.628 47.75 375.628 47.3182V47.2273C375.628 46.1061 375.321 45.2348 374.707 44.6136C374.101 43.9924 373.181 43.6818 371.946 43.6818C370.666 43.6818 369.662 43.9621 368.935 44.5227C368.207 45.0833 367.696 45.6818 367.401 46.3182L364.855 45.4091C365.31 44.3485 365.916 43.5227 366.673 42.9318C367.438 42.3333 368.272 41.9167 369.173 41.6818C370.082 41.4394 370.976 41.3182 371.855 41.3182C372.416 41.3182 373.06 41.3864 373.787 41.5227C374.522 41.6515 375.23 41.9205 375.912 42.3295C376.601 42.7386 377.173 43.3561 377.628 44.1818C378.082 45.0076 378.31 46.1136 378.31 47.5V59H375.628V56.6364H375.491C375.31 57.0152 375.007 57.4205 374.582 57.8523C374.158 58.2841 373.594 58.6515 372.889 58.9545C372.185 59.2576 371.325 59.4091 370.31 59.4091ZM370.719 57C371.779 57 372.673 56.7917 373.401 56.375C374.135 55.9583 374.688 55.4205 375.06 54.7614C375.438 54.1023 375.628 53.4091 375.628 52.6818V50.2273C375.514 50.3636 375.264 50.4886 374.878 50.6023C374.499 50.7083 374.06 50.803 373.56 50.8864C373.067 50.9621 372.586 51.0303 372.116 51.0909C371.654 51.1439 371.279 51.1894 370.991 51.2273C370.295 51.3182 369.643 51.4659 369.037 51.6705C368.438 51.8674 367.954 52.1667 367.582 52.5682C367.219 52.9621 367.037 53.5 367.037 54.1818C367.037 55.1136 367.382 55.8182 368.071 56.2955C368.768 56.7652 369.651 57 370.719 57ZM383.205 59V41.5455H385.795V44.1818H385.977C386.295 43.3182 386.871 42.6174 387.705 42.0795C388.538 41.5417 389.477 41.2727 390.523 41.2727C390.72 41.2727 390.966 41.2765 391.261 41.2841C391.557 41.2917 391.78 41.303 391.932 41.3182V44.0455C391.841 44.0227 391.633 43.9886 391.307 43.9432C390.989 43.8902 390.652 43.8636 390.295 43.8636C389.447 43.8636 388.689 44.0417 388.023 44.3977C387.364 44.7462 386.841 45.2311 386.455 45.8523C386.076 46.4659 385.886 47.1667 385.886 47.9545V59H383.205ZM397.611 52.6364L397.565 49.3182H398.111L405.747 41.5455H409.065L400.929 49.7727H400.702L397.611 52.6364ZM395.111 59V35.7273H397.793V59H395.111ZM406.202 59L399.384 50.3636L401.293 48.5L409.611 59H406.202ZM419.116 59.3636C417.435 59.3636 415.984 58.9924 414.764 58.25C413.552 57.5 412.616 56.4545 411.957 55.1136C411.306 53.7652 410.98 52.197 410.98 50.4091C410.98 48.6212 411.306 47.0455 411.957 45.6818C412.616 44.3106 413.533 43.2424 414.707 42.4773C415.889 41.7045 417.268 41.3182 418.844 41.3182C419.753 41.3182 420.651 41.4697 421.537 41.7727C422.423 42.0758 423.23 42.5682 423.957 43.25C424.685 43.9242 425.264 44.8182 425.696 45.9318C426.128 47.0455 426.344 48.4167 426.344 50.0455V51.1818H412.889V48.8636H423.616C423.616 47.8788 423.42 47 423.026 46.2273C422.639 45.4545 422.086 44.8447 421.366 44.3977C420.654 43.9508 419.813 43.7273 418.844 43.7273C417.776 43.7273 416.851 43.9924 416.071 44.5227C415.298 45.0455 414.704 45.7273 414.287 46.5682C413.87 47.4091 413.662 48.3106 413.662 49.2727V50.8182C413.662 52.1364 413.889 53.2538 414.344 54.1705C414.806 55.0795 415.446 55.7727 416.264 56.25C417.082 56.7197 418.033 56.9545 419.116 56.9545C419.821 56.9545 420.457 56.8561 421.026 56.6591C421.601 56.4545 422.098 56.1515 422.514 55.75C422.931 55.3409 423.253 54.8333 423.48 54.2273L426.071 54.9545C425.798 55.8333 425.34 56.6061 424.696 57.2727C424.052 57.9318 423.257 58.447 422.31 58.8182C421.363 59.1818 420.298 59.3636 419.116 59.3636ZM438.014 41.5455V43.8182H428.969V41.5455H438.014ZM431.605 37.3636H434.287V54C434.287 54.7576 434.397 55.3258 434.616 55.7045C434.844 56.0758 435.132 56.3258 435.48 56.4545C435.836 56.5758 436.211 56.6364 436.605 56.6364C436.901 56.6364 437.143 56.6212 437.332 56.5909C437.522 56.553 437.673 56.5227 437.787 56.5L438.332 58.9091C438.151 58.9773 437.897 59.0455 437.571 59.1136C437.245 59.1894 436.832 59.2273 436.332 59.2273C435.575 59.2273 434.832 59.0644 434.105 58.7386C433.385 58.4129 432.787 57.9167 432.31 57.25C431.84 56.5833 431.605 55.7424 431.605 54.7273V37.3636ZM442.048 59V41.5455H444.73V59H442.048ZM443.412 38.6364C442.889 38.6364 442.438 38.4583 442.06 38.1023C441.688 37.7462 441.503 37.3182 441.503 36.8182C441.503 36.3182 441.688 35.8902 442.06 35.5341C442.438 35.178 442.889 35 443.412 35C443.935 35 444.382 35.178 444.753 35.5341C445.132 35.8902 445.321 36.3182 445.321 36.8182C445.321 37.3182 445.132 37.7462 444.753 38.1023C444.382 38.4583 443.935 38.6364 443.412 38.6364ZM452.324 48.5V59H449.642V41.5455H452.233V44.2727H452.46C452.869 43.3864 453.491 42.6742 454.324 42.1364C455.157 41.5909 456.233 41.3182 457.551 41.3182C458.733 41.3182 459.767 41.5606 460.653 42.0455C461.54 42.5227 462.229 43.25 462.722 44.2273C463.214 45.197 463.46 46.4242 463.46 47.9091V59H460.778V48.0909C460.778 46.7197 460.422 45.6515 459.71 44.8864C458.998 44.1136 458.021 43.7273 456.778 43.7273C455.922 43.7273 455.157 43.9129 454.483 44.2841C453.816 44.6553 453.29 45.197 452.903 45.9091C452.517 46.6212 452.324 47.4848 452.324 48.5ZM475.406 65.9091C474.111 65.9091 472.997 65.7424 472.065 65.4091C471.134 65.0833 470.357 64.6515 469.736 64.1136C469.122 63.5833 468.634 63.0152 468.27 62.4091L470.406 60.9091C470.649 61.2273 470.955 61.5909 471.327 62C471.698 62.4167 472.205 62.7765 472.849 63.0795C473.501 63.3902 474.353 63.5455 475.406 63.5455C476.815 63.5455 477.978 63.2045 478.895 62.5227C479.812 61.8409 480.27 60.7727 480.27 59.3182V55.7727H480.043C479.846 56.0909 479.565 56.4848 479.202 56.9545C478.846 57.4167 478.33 57.8295 477.656 58.1932C476.99 58.5492 476.088 58.7273 474.952 58.7273C473.543 58.7273 472.277 58.3939 471.156 57.7273C470.043 57.0606 469.16 56.0909 468.509 54.8182C467.865 53.5455 467.543 52 467.543 50.1818C467.543 48.3939 467.857 46.8371 468.486 45.5114C469.115 44.178 469.99 43.1477 471.111 42.4205C472.232 41.6856 473.527 41.3182 474.997 41.3182C476.134 41.3182 477.035 41.5076 477.702 41.8864C478.376 42.2576 478.891 42.6818 479.247 43.1591C479.611 43.6288 479.891 44.0152 480.088 44.3182H480.361V41.5455H482.952V59.5C482.952 61 482.611 62.2197 481.929 63.1591C481.255 64.1061 480.346 64.7992 479.202 65.2386C478.065 65.6856 476.8 65.9091 475.406 65.9091ZM475.315 56.3182C476.391 56.3182 477.3 56.072 478.043 55.5795C478.785 55.0871 479.349 54.3788 479.736 53.4545C480.122 52.5303 480.315 51.4242 480.315 50.1364C480.315 48.8788 480.126 47.7689 479.747 46.8068C479.368 45.8447 478.808 45.0909 478.065 44.5455C477.323 44 476.406 43.7273 475.315 43.7273C474.179 43.7273 473.232 44.0152 472.474 44.5909C471.724 45.1667 471.16 45.9394 470.781 46.9091C470.41 47.8788 470.224 48.9545 470.224 50.1364C470.224 51.3485 470.414 52.4205 470.793 53.3523C471.179 54.2765 471.747 55.0038 472.497 55.5341C473.255 56.0568 474.194 56.3182 475.315 56.3182ZM489.815 59.1818C489.255 59.1818 488.774 58.9811 488.372 58.5795C487.971 58.178 487.77 57.697 487.77 57.1364C487.77 56.5758 487.971 56.0947 488.372 55.6932C488.774 55.2917 489.255 55.0909 489.815 55.0909C490.376 55.0909 490.857 55.2917 491.259 55.6932C491.66 56.0947 491.861 56.5758 491.861 57.1364C491.861 57.5076 491.766 57.8485 491.577 58.1591C491.395 58.4697 491.149 58.7197 490.838 58.9091C490.535 59.0909 490.194 59.1818 489.815 59.1818ZM498.628 59.1818C498.067 59.1818 497.586 58.9811 497.185 58.5795C496.783 58.178 496.582 57.697 496.582 57.1364C496.582 56.5758 496.783 56.0947 497.185 55.6932C497.586 55.2917 498.067 55.0909 498.628 55.0909C499.188 55.0909 499.67 55.2917 500.071 55.6932C500.473 56.0947 500.673 56.5758 500.673 57.1364C500.673 57.5076 500.579 57.8485 500.389 58.1591C500.207 58.4697 499.961 58.7197 499.651 58.9091C499.348 59.0909 499.007 59.1818 498.628 59.1818ZM507.44 59.1818C506.88 59.1818 506.399 58.9811 505.997 58.5795C505.596 58.178 505.395 57.697 505.395 57.1364C505.395 56.5758 505.596 56.0947 505.997 55.6932C506.399 55.2917 506.88 55.0909 507.44 55.0909C508.001 55.0909 508.482 55.2917 508.884 55.6932C509.285 56.0947 509.486 56.5758 509.486 57.1364C509.486 57.5076 509.391 57.8485 509.202 58.1591C509.02 58.4697 508.774 58.7197 508.463 58.9091C508.16 59.0909 507.819 59.1818 507.44 59.1818Z" fill="#ADADAD"/>
</svg>
